<?xml version="1.0" encoding="utf-8"?>
<!-- Generator: Adobe Illustrator 17.0.0, SVG Export Plug-In . SVG Version: 6.00 Build 0)  -->
<!DOCTYPE svg PUBLIC "-//W3C//DTD SVG 1.1//EN" "http://www.w3.org/Graphics/SVG/1.1/DTD/svg11.dtd">
<svg version="1.1" id="Layer_1" xmlns="http://www.w3.org/2000/svg" xmlns:xlink="http://www.w3.org/1999/xlink" x="0px" y="0px"
	 width="288px" height="288px" viewBox="0 0 288 288" enable-background="new 0 0 288 288" xml:space="preserve">
<g>
	<g>
		<path fill="#1D1D1B" d="M188.045,196.656V75.204c0-53.696-32.759-74.292-32.759-74.292s-34.219,20.596-34.219,74.292v121.452
			c0,0,0,51.689,11.578,91.162h45.282C188.045,248.345,188.045,196.656,188.045,196.656z"/>
		<path fill="#FFFFFF" d="M174.028,282.847h-37.62c-10.246-37.857-10.369-85.696-10.369-86.191V75.204
			c0-41.959,21.498-62.261,29.181-68.175c7.402,5.981,27.853,26.295,27.853,68.175v121.452
			C183.072,197.15,182.959,244.966,174.028,282.847L174.028,282.847z"/>
	</g>
	<g>
		<polygon fill="#1D1D1B" points="138.832,257.502 137.756,252.649 94.242,56.379 93.168,51.524 98.02,50.448 126.011,44.243 
			130.866,43.168 131.942,48.021 175.454,244.291 176.529,249.146 171.676,250.223 143.687,256.428 138.832,257.502 		"/>
		
			<rect x="120.515" y="49.818" transform="matrix(0.9763 -0.2164 0.2164 0.9763 -29.3402 32.7477)" fill="#FFFFFF" width="28.669" height="201.035"/>
		<polygon fill="#1D1D1B" points="164.67,241.588 146.389,245.642 105.028,59.08 123.31,55.027 164.67,241.588 		"/>
		
			<rect x="115.818" y="69.34" transform="matrix(0.9763 -0.2164 0.2164 0.9763 -13.5799 27.3938)" fill="#FFFFFF" width="4.975" height="12.739"/>
		
			<rect x="121.332" y="94.215" transform="matrix(0.9763 -0.2164 0.2164 0.9763 -18.8346 29.1819)" fill="#FFFFFF" width="4.974" height="12.739"/>
		
			<rect x="126.847" y="119.09" transform="matrix(0.9763 -0.2165 0.2165 0.9763 -24.0921 30.9724)" fill="#FFFFFF" width="4.973" height="12.74"/>
		
			<rect x="132.361" y="143.965" transform="matrix(0.9763 -0.2165 0.2165 0.9763 -29.3472 32.7577)" fill="#FFFFFF" width="4.975" height="12.739"/>
		
			<rect x="137.876" y="168.84" transform="matrix(0.9763 -0.2165 0.2165 0.9763 -34.5972 34.5359)" fill="#FFFFFF" width="4.974" height="12.739"/>
		
			<rect x="143.391" y="193.714" transform="matrix(0.9763 -0.2165 0.2165 0.9763 -39.8571 36.3265)" fill="#FFFFFF" width="4.973" height="12.74"/>
		
			<rect x="148.905" y="218.59" transform="matrix(0.9763 -0.2164 0.2164 0.9763 -45.0961 38.0942)" fill="#FFFFFF" width="4.975" height="12.739"/>
	</g>
	<g>
		<path fill="#1D1D1B" d="M156.619,114.886v18.776h6.573c0.776,7.596,2.011,16.106,3.976,24.001h17.356
			c1.714-7.897,2.814-16.406,3.521-24.001h7.102v-18.776H156.619z"/>
		<path fill="#FFFFFF" d="M180.456,152.691h-9.338c-1.244-5.791-2.244-12.341-2.98-19.535l-0.455-4.468h-4.491h-1.602v-6.199h28.582
			v6.199h-2.128h-4.532l-0.419,4.512C182.431,140.361,181.545,146.896,180.456,152.691L180.456,152.691z"/>
	</g>
</g>
</svg>
