<?xml version="1.0" encoding="utf-8"?>
<!-- Generator: Adobe Illustrator 17.0.0, SVG Export Plug-In . SVG Version: 6.00 Build 0)  -->
<!DOCTYPE svg PUBLIC "-//W3C//DTD SVG 1.1//EN" "http://www.w3.org/Graphics/SVG/1.1/DTD/svg11.dtd">
<svg version="1.1" id="Layer_1" xmlns="http://www.w3.org/2000/svg" xmlns:xlink="http://www.w3.org/1999/xlink" x="0px" y="0px"
	 width="288px" height="288px" viewBox="0 0 288 288" enable-background="new 0 0 288 288" xml:space="preserve">
<g>
	<g>
		<path fill="#1D1D1B" d="M170.302,287.055h-4.076h-45.284h-4.076l-0.799-3.999c-6.955-34.822-10.944-84.215-10.944-135.511
			c0-101.529,33.275-141.369,34.69-143.015l3.77-4.382l3.77,4.382c1.416,1.645,34.692,41.485,34.692,143.015
			c0,51.296-3.989,100.688-10.943,135.511L170.302,287.055L170.302,287.055z"/>
		<path fill="#FFFFFF" d="M177.071,147.545c0-100.851-33.487-139.773-33.487-139.773s-33.488,38.923-33.488,139.773
			c0,53.243,4.179,101.158,10.846,134.536h45.283C172.892,248.703,177.071,200.788,177.071,147.545z"/>
	</g>
	<g>
		<path fill="#FFFFFF" d="M171.878,168.222c0.144-6.833,0.22-13.735,0.22-20.677c0-76.983-19.984-117.352-28.513-131.066
			c-8.528,13.715-28.517,54.083-28.517,131.066c0,6.941,0.077,13.844,0.221,20.677c8.772-0.396,18.314-0.614,28.296-0.614
			C153.565,167.607,163.106,167.825,171.878,168.222z"/>
		<path fill="#1D1D1B" d="M120.167,163.048c-0.083-5.2-0.126-10.395-0.126-15.504c0-64.691,14.209-102.869,23.544-120.96
			c9.334,18.093,23.541,56.272,23.541,120.96c0,5.108-0.043,10.304-0.127,15.504c-7.54-0.274-15.394-0.412-23.414-0.412
			C135.564,162.636,127.71,162.773,120.167,163.048L120.167,163.048z"/>
		<path fill="#FFFFFF" d="M121.429,254.23c1.08,8.121,2.286,15.786,3.614,22.879h37.08c1.327-7.093,2.533-14.758,3.614-22.879
			c-7.023,0.242-14.456,0.372-22.152,0.372C135.887,254.602,128.451,254.473,121.429,254.23z"/>
		<path fill="#1D1D1B" d="M143.585,179.29c9.86,0,19.292,0.213,27.976,0.601c0.129-3.862,0.233-7.754,0.316-11.669
			c-8.771-0.396-18.312-0.614-28.293-0.614c-9.982,0-19.524,0.218-28.296,0.614c0.083,3.915,0.188,7.807,0.316,11.669
			C124.291,179.503,133.723,179.29,143.585,179.29z"/>
		<g>
			<path fill="#1D1D1B" d="M143.585,179.29c-9.862,0-19.294,0.213-27.98,0.601c0.059,1.749,0.122,3.49,0.189,5.227
				c0.153,3.937,0.328,7.842,0.528,11.705c0.725,14.001,1.757,27.474,3.068,40.121c0.617,5.958,1.298,11.73,2.037,17.286
				c7.022,0.242,14.458,0.372,22.156,0.372c7.696,0,15.13-0.13,22.152-0.372c0.739-5.556,1.419-11.328,2.037-17.286
				c1.311-12.647,2.344-26.12,3.069-40.121c0.199-3.863,0.375-7.769,0.528-11.705c0.067-1.737,0.131-3.479,0.189-5.227
				C162.877,179.503,153.445,179.29,143.585,179.29z"/>
			<path fill="#FFFFFF" d="M143.585,249.631c-5.984,0-11.943-0.081-17.769-0.24c-0.527-4.219-1.023-8.562-1.479-12.958
				c-1.305-12.589-2.33-26-3.048-39.867c-0.19-3.665-0.367-7.583-0.526-11.643c-0.004-0.088-0.008-0.175-0.01-0.262
				c7.373-0.268,15.029-0.4,22.832-0.4c7.799,0,15.458,0.133,22.829,0.4c-0.002,0.087-0.007,0.175-0.01,0.264
				c-0.159,4.058-0.336,7.976-0.527,11.64c-0.715,13.832-1.741,27.244-3.047,39.868c-0.462,4.442-0.958,8.786-1.482,12.958
				C155.524,249.55,149.568,249.631,143.585,249.631L143.585,249.631z"/>
		</g>
	</g>
	<circle fill="#1D1D1B" cx="143.585" cy="231.384" r="13.417"/>
	<circle fill="#FFFFFF" cx="143.584" cy="117.896" r="5.738"/>
</g>
</svg>
