<?xml version="1.0" encoding="utf-8"?>
<!-- Generator: Adobe Illustrator 17.0.0, SVG Export Plug-In . SVG Version: 6.00 Build 0)  -->
<!DOCTYPE svg PUBLIC "-//W3C//DTD SVG 1.1//EN" "http://www.w3.org/Graphics/SVG/1.1/DTD/svg11.dtd">
<svg version="1.1" id="Layer_1" xmlns="http://www.w3.org/2000/svg" xmlns:xlink="http://www.w3.org/1999/xlink" x="0px" y="0px"
	 width="288px" height="288px" viewBox="0 0 288 288" enable-background="new 0 0 288 288" xml:space="preserve">
<g>
	<g>
		<path fill="#1D1D1B" d="M165.339,143.871c0-2.154,1.748-3.902,3.905-3.902v-1.621c0-1.372-1.113-2.484-2.486-2.484h-44.747
			c-1.372,0-2.486,1.112-2.486,2.484v1.621c2.157,0,3.906,1.748,3.906,3.902c0,2.155-1.749,3.902-3.906,3.902v1.621
			c0,1.372,1.114,2.484,2.486,2.484h44.747c1.373,0,2.486-1.112,2.486-2.484v-1.621
			C167.087,147.773,165.339,146.026,165.339,143.871z"/>
	</g>
	<g>
		<path fill="#1D1D1B" d="M148.47,6.328L148.47,6.328c0-3.412-1.83-6.18-4.084-6.18c-2.257,0-4.087,2.768-4.087,6.18
			c0,45.919-14.62,68.637-14.62,137.273s14.62,91.354,14.62,137.273c0,3.412,1.83,6.18,4.087,6.18c2.254,0,4.084-2.768,4.084-6.18
			v-0.002c0-45.917,14.62-68.635,14.62-137.271S148.47,52.247,148.47,6.328z"/>
	</g>
	<ellipse fill="#FFFFFF" cx="144.385" cy="143.602" rx="15.265" ry="40.136"/>
	<g>
		<path fill="#1D1D1B" d="M135.859,161.799c2.356,11.115,6.466,16.971,8.525,16.971c2.059,0,6.168-5.855,8.524-16.971
			c-2.575,1.246-5.467,1.946-8.524,1.946C141.327,163.745,138.435,163.045,135.859,161.799z"/>
		<path fill="#1D1D1B" d="M153.268,127.23c-2.272-12.297-6.715-18.796-8.883-18.796c-2.245,0-6.688,6.372-8.93,18.819
			c2.675-1.372,5.71-2.153,8.93-2.153C147.586,125.1,150.604,125.873,153.268,127.23z"/>
		<path fill="#FFFFFF" d="M153.268,127.23c-2.663-1.357-5.682-2.13-8.883-2.13c-3.22,0-6.255,0.781-8.93,2.153
			c-0.833,4.619-1.364,10.068-1.364,16.348c0,7.101,0.707,13.183,1.769,18.197c2.576,1.246,5.468,1.946,8.525,1.946
			c3.058,0,5.949-0.7,8.524-1.946c1.062-5.015,1.769-11.097,1.769-18.197C154.678,137.339,154.127,131.874,153.268,127.23z"/>
	</g>
</g>
</svg>
