<?xml version="1.0" encoding="utf-8"?>
<!-- Generator: Adobe Illustrator 17.0.0, SVG Export Plug-In . SVG Version: 6.00 Build 0)  -->
<!DOCTYPE svg PUBLIC "-//W3C//DTD SVG 1.1//EN" "http://www.w3.org/Graphics/SVG/1.1/DTD/svg11.dtd">
<svg version="1.1" id="Layer_1" xmlns="http://www.w3.org/2000/svg" xmlns:xlink="http://www.w3.org/1999/xlink" x="0px" y="0px"
	 width="288px" height="288px" viewBox="0 0 288 288" enable-background="new 0 0 288 288" xml:space="preserve">
<g>
	<g>
		<path fill="#1D1D1B" d="M171.102,287.271h-4.077h-45.283h-4.077l-0.799-3.999c-6.955-34.822-10.943-84.215-10.943-135.511
			c0-101.529,33.274-141.369,34.689-143.015l3.77-4.382l3.77,4.382c1.416,1.645,34.692,41.486,34.692,143.015
			c0,51.296-3.988,100.689-10.944,135.511L171.102,287.271L171.102,287.271z"/>
		<path fill="#FFFFFF" d="M177.872,147.762c0-100.851-33.489-139.773-33.489-139.773s-33.487,38.922-33.487,139.773
			c0,53.243,4.181,101.158,10.848,134.536h45.282C173.692,248.92,177.872,201.005,177.872,147.762z"/>
	</g>
	<g>
		<path fill="#1D1D1B" d="M162.909,86.787c-5.546-5.195-11.867-7.984-18.526-7.984c-6.659,0-12.979,2.787-18.523,7.983
			c5.046-29.09,12.894-48.533,18.523-59.643C150.015,38.254,157.862,57.697,162.909,86.787L162.909,86.787z"/>
		<path fill="#1D1D1B" d="M144.383,83.831c-10.746,0-20.304,9.336-26.424,23.839c-0.93,8.891-1.59,18.464-1.897,28.749
			c5.922-9.71,16.381-16.174,28.32-16.174c11.939,0,22.4,6.465,28.321,16.175c-0.307-10.283-0.967-19.857-1.896-28.746
			C164.686,93.17,155.129,83.831,144.383,83.831z"/>
	</g>
	<g>
		<path fill="#1D1D1B" d="M158.771,275.508h-28.775c-2.95-17.015-5.253-37.099-6.814-58.841c-1.7,0.7-3.312,1.482-4.822,2.337
			c1.7,22.934,4.233,43.954,7.484,61.533h37.081c3.251-17.576,5.782-38.596,7.483-61.534c-1.512-0.854-3.123-1.636-4.824-2.336
			C164.023,238.411,161.72,258.496,158.771,275.508z"/>
		<path fill="#1D1D1B" d="M123.182,216.667c1.562,21.742,3.864,41.826,6.814,58.841h28.775c2.948-17.011,5.252-37.097,6.813-58.841
			c-6.128-2.523-13.398-3.99-21.201-3.99C136.58,212.677,129.31,214.145,123.182,216.667z"/>
		<path fill="#FFFFFF" d="M154.572,270.479h-20.378c-2.408-14.816-4.348-31.727-5.771-50.378c4.928-1.572,10.376-2.395,15.96-2.395
			c5.585,0,11.033,0.822,15.96,2.395C158.919,238.754,156.98,255.664,154.572,270.479L154.572,270.479z"/>
		<path fill="#1D1D1B" d="M150.329,265.45h-11.891c-1.909-12.515-3.496-26.458-4.728-41.569c3.406-0.752,7.035-1.144,10.675-1.144
			c3.64,0,7.267,0.392,10.672,1.144C153.823,238.989,152.237,252.935,150.329,265.45L150.329,265.45z"/>
	</g>
	<path fill="#FFFFFF" d="M147.49,58.195c0,1.736-1.391,3.144-3.107,3.144l0,0c-1.716,0-3.107-1.407-3.107-3.144l0,0
		c0-1.736,1.392-3.144,3.107-3.144l0,0C146.1,55.051,147.49,56.459,147.49,58.195L147.49,58.195z"/>
	<path fill="#1D1D1B" d="M144.383,207.633c-18.293,0-33.176-15.057-33.176-33.562c0-18.505,14.883-33.561,33.176-33.561
		s33.177,15.056,33.177,33.561C177.56,192.576,162.676,207.633,144.383,207.633L144.383,207.633z"/>
	<ellipse fill="#FFFFFF" cx="144.383" cy="174.071" rx="28.204" ry="28.531"/>
	<path fill="#1D1D1B" d="M144.383,197.572c-12.811,0-23.23-10.541-23.23-23.501c0-12.959,10.42-23.5,23.23-23.5
		c12.812,0,23.232,10.541,23.232,23.5C167.614,187.031,157.194,197.572,144.383,197.572L144.383,197.572z"/>
	<g>
		<path fill="#FFFFFF" d="M154.418,157.695c-1.373,0-2.485,1.126-2.485,2.514v11.348h-14.766v-11.348
			c0-1.388-1.112-2.514-2.485-2.514c-1.373,0-2.485,1.126-2.485,2.514v27.39c0,1.389,1.112,2.515,2.485,2.515
			c1.373,0,2.485-1.126,2.485-2.515v-11.014h14.766v11.014c0,1.389,1.112,2.515,2.485,2.515c1.373,0,2.485-1.126,2.485-2.515v-27.39
			C156.903,158.821,155.791,157.695,154.418,157.695z"/>
	</g>
</g>
</svg>
