<?xml version="1.0" encoding="utf-8"?>
<!-- Generator: Adobe Illustrator 17.0.0, SVG Export Plug-In . SVG Version: 6.00 Build 0)  -->
<!DOCTYPE svg PUBLIC "-//W3C//DTD SVG 1.1//EN" "http://www.w3.org/Graphics/SVG/1.1/DTD/svg11.dtd">
<svg version="1.1" id="Layer_1" xmlns="http://www.w3.org/2000/svg" xmlns:xlink="http://www.w3.org/1999/xlink" x="0px" y="0px"
	 width="288px" height="288px" viewBox="0 0 288 288" enable-background="new 0 0 288 288" xml:space="preserve">
<g>
	<g>
		<path fill="#1D1D1B" d="M170.469,287.055h-4.076h-45.284h-4.077l-0.798-3.999c-6.956-34.822-10.944-84.215-10.944-135.511
			c0-101.529,33.274-141.369,34.69-143.015l3.77-4.382l3.77,4.382c1.417,1.645,34.692,41.485,34.692,143.015
			c0,51.296-3.988,100.688-10.943,135.511L170.469,287.055L170.469,287.055z"/>
		<path fill="#FFFFFF" d="M177.238,147.545c0-100.851-33.488-139.773-33.488-139.773s-33.488,38.923-33.488,139.773
			c0,53.243,4.18,101.158,10.847,134.536h45.282C173.058,248.703,177.238,200.788,177.238,147.545z"/>
	</g>
	<g>
		<path fill="#FFFFFF" d="M165.244,74.695c-6.6-31.122-16.23-49.751-21.494-58.217c-5.264,8.466-14.894,27.095-21.494,58.217
			c6.803-0.699,14.017-1.079,21.494-1.079C151.229,73.616,158.441,73.996,165.244,74.695z"/>
		<path fill="#FFFFFF" d="M172.18,139.023c-0.118-5.986-0.357-11.737-0.703-17.258c-8.562,1.176-17.916,1.828-27.727,1.828
			c-9.809,0-19.164-0.652-27.727-1.828c-0.346,5.521-0.585,11.272-0.702,17.258c8.751-1.236,18.353-1.922,28.429-1.922
			C153.826,137.102,163.428,137.787,172.18,139.023z"/>
		<path fill="#FFFFFF" d="M120.965,249.347c1.234,9.949,2.653,19.262,4.245,27.763h37.08c1.591-8.501,3.011-17.813,4.245-27.763
			c-7.178,0.787-14.831,1.218-22.785,1.218S128.144,250.134,120.965,249.347z"/>
		<path fill="#FFFFFF" d="M143.75,187.079c-9.831,0-19.205-0.655-27.784-1.836c0.226,5.769,0.501,11.465,0.827,17.069
			c8.353-1.109,17.44-1.726,26.957-1.726c9.518,0,18.604,0.616,26.957,1.726c0.326-5.605,0.602-11.301,0.827-17.069
			C162.955,186.424,153.582,187.079,143.75,187.079z"/>
		<path fill="#1D1D1B" d="M116.793,202.312c0.969,16.671,2.373,32.531,4.172,47.034c7.179,0.787,14.831,1.218,22.785,1.218
			s15.607-0.431,22.785-1.218c1.799-14.503,3.203-30.363,4.172-47.034c-8.354-1.109-17.439-1.726-26.957-1.726
			C134.233,200.587,125.146,201.203,116.793,202.312z"/>
		<path fill="#1D1D1B" d="M171.534,185.243c0.48-12.308,0.731-24.938,0.731-37.698c0-2.895-0.031-5.73-0.086-8.521
			c-8.752-1.236-18.354-1.922-28.43-1.922c-10.076,0-19.678,0.686-28.429,1.922c-0.056,2.791-0.087,5.627-0.087,8.521
			c0,12.76,0.251,25.391,0.731,37.698c8.579,1.181,17.953,1.836,27.784,1.836C153.582,187.079,162.955,186.424,171.534,185.243z"/>
		<path fill="#1D1D1B" d="M171.477,121.766c-1.134-18.107-3.404-33.736-6.232-47.07c-6.803-0.699-14.016-1.079-21.494-1.079
			c-7.478,0-14.691,0.38-21.494,1.079c-2.828,13.334-5.099,28.963-6.233,47.07c8.562,1.176,17.918,1.828,27.727,1.828
			C153.561,123.594,162.914,122.941,171.477,121.766z"/>
	</g>
	<circle fill="#1D1D1B" cx="143.099" cy="61.102" r="5.737"/>
</g>
</svg>
