<?xml version="1.0" encoding="utf-8"?>
<!-- Generator: Adobe Illustrator 17.0.0, SVG Export Plug-In . SVG Version: 6.00 Build 0)  -->
<!DOCTYPE svg PUBLIC "-//W3C//DTD SVG 1.1//EN" "http://www.w3.org/Graphics/SVG/1.1/DTD/svg11.dtd">
<svg version="1.1" id="Layer_1" xmlns="http://www.w3.org/2000/svg" xmlns:xlink="http://www.w3.org/1999/xlink" x="0px" y="0px"
	 width="288px" height="288px" viewBox="0 0 288 288" enable-background="new 0 0 288 288" xml:space="preserve">
<g>
	<g>
		<path fill="#1D1D1B" d="M176.574,196.109V74.657c0-53.696-32.757-74.292-32.757-74.292s-34.22,20.596-34.22,74.292v121.452
			c0,0,0,51.689,11.578,91.162h45.283C176.574,247.799,176.574,196.109,176.574,196.109z"/>
		<path fill="#FFFFFF" d="M162.558,282.3h-37.62c-10.246-37.857-10.37-85.696-10.37-86.191V74.657
			c0-41.959,21.498-62.261,29.181-68.175c7.402,5.981,27.854,26.295,27.854,68.175v121.452
			C171.603,196.604,171.488,244.419,162.558,282.3L162.558,282.3z"/>
	</g>
	<g>
		<path fill="#1D1D1B" d="M104.651,208.396v27.721h17.311c1.332,13.043,3.451,27.655,6.825,41.211h29.801
			c2.943-13.56,4.832-28.17,6.045-41.211h18.217v-27.721H104.651z M177.878,231.145h-17.802c-0.136,1.629-0.283,3.288-0.441,4.973
			c-1.08,11.506-2.689,24.2-5.091,36.238h-21.831c-2.742-11.997-4.548-24.707-5.737-36.238c-0.173-1.685-0.334-3.344-0.482-4.973
			h-16.87V216h68.255V231.145z"/>
	</g>
	<g>
		<path fill="#FFFFFF" d="M109.623,216v15.145h16.87c0.149,1.629,0.309,3.288,0.482,4.973c1.188,11.531,2.995,24.242,5.737,36.238
			h21.831c2.402-12.038,4.011-24.732,5.091-36.238c0.159-1.685,0.305-3.344,0.441-4.973h17.802V216H109.623z"/>
	</g>
	<rect x="136.73" y="254.967" fill="#1D1D1B" width="14.04" height="27.334"/>
	<path fill="#1D1D1B" d="M166.63,191.29c0,4.119-3.339,7.459-7.458,7.459h-32.173c-4.119,0-7.459-3.339-7.459-7.459v-32.173
		c0-4.119,3.34-7.458,7.459-7.458h32.173c4.119,0,7.458,3.339,7.458,7.458V191.29z"/>
	<path fill="#1D1D1B" d="M166.63,134.59c0,4.119-3.339,7.458-7.458,7.458h-32.173c-4.119,0-7.459-3.339-7.459-7.458v-32.173
		c0-4.119,3.34-7.458,7.459-7.458h32.173c4.119,0,7.458,3.339,7.458,7.458V134.59z"/>
	<g>
		<path fill="#1D1D1B" d="M159.172,38.258h-32.173c-0.217,0-0.43,0.014-0.643,0.032c-3.939,9.465-6.816,21.466-6.816,36.367v3.232
			c0,4.119,3.34,7.458,7.459,7.458h32.173c4.119,0,7.458-3.339,7.458-7.458v-3.232c0-14.874-2.732-26.863-6.478-36.328
			C159.831,38.287,159.505,38.258,159.172,38.258z"/>
	</g>
	<rect x="139.978" y="33.163" fill="#FFFFFF" width="6.215" height="165.586"/>
	<path fill="#1D1D1B" d="M146.194,90.153c0,1.716-1.392,3.107-3.108,3.107l0,0c-1.716,0-3.107-1.391-3.107-3.107l0,0
		c0-1.716,1.391-3.107,3.107-3.107l0,0C144.802,87.045,146.194,88.437,146.194,90.153L146.194,90.153z"/>
	<path fill="#1D1D1B" d="M146.194,33.163c0,1.716-1.392,3.108-3.108,3.108l0,0c-1.716,0-3.107-1.392-3.107-3.108l0,0
		c0-1.716,1.391-3.107,3.107-3.107l0,0C144.802,30.056,146.194,31.447,146.194,33.163L146.194,33.163z"/>
	<path fill="#1D1D1B" d="M146.193,146.854c0,1.716-1.391,3.107-3.108,3.107l0,0c-1.716,0-3.107-1.391-3.107-3.107l0,0
		c0-1.716,1.391-3.108,3.107-3.108l0,0C144.802,143.746,146.193,145.138,146.193,146.854L146.193,146.854z"/>
</g>
</svg>
