<?xml version="1.0" encoding="utf-8"?>
<!-- Generator: Adobe Illustrator 17.0.0, SVG Export Plug-In . SVG Version: 6.00 Build 0)  -->
<!DOCTYPE svg PUBLIC "-//W3C//DTD SVG 1.1//EN" "http://www.w3.org/Graphics/SVG/1.1/DTD/svg11.dtd">
<svg version="1.1" id="Layer_1" xmlns="http://www.w3.org/2000/svg" xmlns:xlink="http://www.w3.org/1999/xlink" x="0px" y="0px"
	 width="288px" height="288px" viewBox="0 0 288 288" enable-background="new 0 0 288 288" xml:space="preserve">
<g>
	<g>
		<path fill="#1D1D1B" d="M170.899,287.055h-4.075h-45.285h-4.076l-0.799-3.999c-6.955-34.822-10.944-84.215-10.944-135.511
			c0-101.529,33.275-141.369,34.69-143.015l3.77-4.382l3.77,4.382c1.416,1.645,34.692,41.485,34.692,143.015
			c0,51.296-3.989,100.688-10.943,135.511L170.899,287.055L170.899,287.055z"/>
		<path fill="#FFFFFF" d="M177.67,147.545c0-100.851-33.488-139.773-33.488-139.773s-33.488,38.923-33.488,139.773
			c0,53.243,4.18,101.158,10.846,134.536h45.283C173.489,248.703,177.67,200.788,177.67,147.545z"/>
	</g>
	<path fill="#FFFFFF" d="M169.269,227.67c2.229-24.695,3.429-52.104,3.429-80.126c0-76.989-19.989-117.356-28.516-131.069
		c-8.528,13.713-28.518,54.08-28.518,131.069c0,28.024,1.2,55.433,3.428,80.126c7.276-2.352,15.872-3.715,25.089-3.715
		C153.397,223.955,161.993,225.318,169.269,227.67z"/>
	<g>
		<path fill="#1D1D1B" d="M168.185,238.699c0.385-3.61,0.747-7.286,1.084-11.029c-7.276-2.352-15.872-3.715-25.088-3.715
			c-9.217,0-17.813,1.363-25.089,3.715c0.337,3.743,0.699,7.419,1.083,11.029c7.044-2.145,15.237-3.391,24.006-3.391
			C152.949,235.308,161.143,236.554,168.185,238.699z"/>
		<path fill="#1D1D1B" d="M125.643,277.109h37.076c0.391-2.084,0.77-4.219,1.139-6.397c1.664-9.81,3.111-20.563,4.328-32.013
			c-7.043-2.145-15.236-3.391-24.004-3.391c-8.769,0-16.962,1.245-24.006,3.391c1.218,11.45,2.665,22.203,4.327,32.013
			C124.872,272.891,125.252,275.025,125.643,277.109z"/>
		<path fill="#FFFFFF" d="M158.567,272.136h-28.773c-0.132-0.746-0.262-1.499-0.39-2.255c-1.426-8.401-2.707-17.632-3.82-27.495
			c5.807-1.382,12.158-2.105,18.598-2.105c6.439,0,12.789,0.723,18.596,2.105c-1.113,9.85-2.396,19.08-3.821,27.496
			C158.827,270.639,158.697,271.39,158.567,272.136L158.567,272.136z"/>
	</g>
	<path fill="#1D1D1B" d="M144.183,225.127c0,0,24.388-20.963,24.388-47.39c0-26.429-45.195-29.523-45.195-85.532
		c0-37.865,20.808-75.73,20.808-75.73V225.127z"/>
	<circle fill="#1D1D1B" cx="144.137" cy="144.271" r="6.601"/>
	<path fill="#1D1D1B" d="M146.166,247.374c0,1.122-0.907,2.031-2.029,2.031l0,0c-1.121,0-2.028-0.909-2.028-2.031v-15.383
		c0-1.12,0.907-2.029,2.028-2.029l0,0c1.122,0,2.029,0.909,2.029,2.029V247.374z"/>
	<path fill="#1D1D1B" d="M157.262,247.374c1.121,0,2.031,0.909,2.031,2.031l0,0c0,1.12-0.91,2.029-2.031,2.029h-26.249
		c-1.122,0-2.031-0.909-2.031-2.029l0,0c0-1.122,0.909-2.031,2.031-2.031H157.262z"/>
</g>
</svg>
