<?xml version="1.0" encoding="utf-8"?>
<!-- Generator: Adobe Illustrator 17.0.0, SVG Export Plug-In . SVG Version: 6.00 Build 0)  -->
<!DOCTYPE svg PUBLIC "-//W3C//DTD SVG 1.1//EN" "http://www.w3.org/Graphics/SVG/1.1/DTD/svg11.dtd">
<svg version="1.1" id="Layer_1" xmlns="http://www.w3.org/2000/svg" xmlns:xlink="http://www.w3.org/1999/xlink" x="0px" y="0px"
	 width="288px" height="288px" viewBox="0 0 288 288" enable-background="new 0 0 288 288" xml:space="preserve">
<g>
	<g>
		<path fill="#1D1D1B" d="M170.804,287.055h-4.076h-45.283h-4.077l-0.799-3.999c-6.955-34.822-10.943-84.215-10.943-135.511
			c0-101.529,33.274-141.369,34.689-143.015l3.771-4.382l3.77,4.382c1.416,1.645,34.692,41.485,34.692,143.015
			c0,51.296-3.988,100.688-10.944,135.511L170.804,287.055L170.804,287.055z"/>
		<path fill="#FFFFFF" d="M177.574,147.545c0-100.851-33.488-139.773-33.488-139.773s-33.488,38.923-33.488,139.773
			c0,53.243,4.18,101.158,10.847,134.536h45.282C173.394,248.703,177.574,200.788,177.574,147.545z"/>
	</g>
	<g>
		<path fill="#FFFFFF" d="M144.085,102.945c12.24,0,22.907,17.364,28.509,43.064c-0.264-75.981-20.038-115.907-28.509-129.531
			C135.614,30.101,115.844,70.025,115.577,146C121.18,120.305,131.846,102.945,144.085,102.945z"/>
		<path fill="#1D1D1B" d="M144.085,271.683c-8.995,0-17.142-9.378-23.052-24.549c1.295,10.78,2.804,20.849,4.512,29.976h37.081
			c1.709-9.129,3.218-19.2,4.514-29.983C161.229,262.302,153.081,271.683,144.085,271.683z"/>
		<path fill="#1D1D1B" d="M144.085,247.332c-9.92,0-18.8-6.394-24.796-16.48c0.528,5.584,1.11,11.018,1.744,16.282
			c5.91,15.171,14.057,24.549,23.052,24.549c8.996,0,17.143-9.381,23.055-24.557c0.633-5.264,1.215-10.696,1.742-16.278
			C162.887,240.934,154.006,247.332,144.085,247.332z"/>
		<path fill="#1D1D1B" d="M115.984,175.917c5.702-13.839,16.149-23.114,28.101-23.114c11.951,0,22.4,9.277,28.102,23.119
			c0.271-9.333,0.413-18.818,0.413-28.377c0-0.516-0.004-1.022-0.007-1.535c-5.602-25.7-16.269-43.064-28.509-43.064
			c-12.239,0-22.905,17.359-28.508,43.055c-0.002,0.516-0.006,1.025-0.006,1.545C115.571,157.102,115.712,166.585,115.984,175.917z"
			/>
		<path fill="#1D1D1B" d="M144.085,152.803c-11.951,0-22.399,9.275-28.101,23.114c0.56,19.211,1.681,37.765,3.305,54.935
			c5.996,10.086,14.876,16.48,24.796,16.48c9.921,0,18.802-6.397,24.797-16.484c1.625-17.167,2.746-35.718,3.306-54.926
			C166.485,162.08,156.036,152.803,144.085,152.803z"/>
		<path fill="#FFFFFF" d="M144.085,242.36c-7.459,0-14.685-4.766-19.953-13.121c-1.535-16.514-2.591-34.127-3.146-52.384
			c5.154-11.798,13.936-19.08,23.099-19.08c9.163,0,17.944,7.285,23.1,19.086c-0.554,18.265-1.611,35.872-3.146,52.374
			C158.773,237.593,151.548,242.36,144.085,242.36L144.085,242.36z"/>
	</g>
	<path fill="#1D1D1B" d="M142.047,182.97c0,1.867-1.514,12.272-3.382,12.272h-12.02c-1.867,0-3.382-10.405-3.382-12.272l0,0
		c0-1.867,1.515-3.381,3.382-3.381h12.02C140.533,179.589,142.047,181.102,142.047,182.97L142.047,182.97z"/>
	<path fill="#1D1D1B" d="M163.322,216.964c0,1.867-1.515,12.271-3.382,12.271h-32.588c-1.867,0-3.381-10.404-3.381-12.271l0,0
		c0-1.867,1.514-3.381,3.381-3.381h32.588C161.808,213.583,163.322,215.097,163.322,216.964L163.322,216.964z"/>
	<path fill="#1D1D1B" d="M165.214,182.97c0,1.867-1.515,12.272-3.382,12.272h-12.021c-1.868,0-3.382-10.405-3.382-12.272l0,0
		c0-1.867,1.514-3.381,3.382-3.381h12.021C163.699,179.589,165.214,181.102,165.214,182.97L165.214,182.97z"/>
	<path fill="#1D1D1B" d="M142.047,200.193c0,1.867-1.514,1.811-3.382,1.811h-12.02c-1.867,0-3.382,0.056-3.382-1.811l0,0
		c0-1.867,1.515-4.951,3.382-4.951h12.02C140.533,195.242,142.047,198.326,142.047,200.193L142.047,200.193z"/>
	<path fill="#1D1D1B" d="M165.214,200.193c0,1.867-1.515,1.811-3.382,1.811h-12.021c-1.868,0-3.382,0.056-3.382-1.811l0,0
		c0-1.867,1.514-4.951,3.382-4.951h12.021C163.699,195.242,165.214,198.326,165.214,200.193L165.214,200.193z"/>
	<circle fill="#1D1D1B" cx="144.085" cy="34.896" r="5.738"/>
</g>
</svg>
