<?xml version="1.0" encoding="utf-8"?>
<!-- Generator: Adobe Illustrator 17.0.0, SVG Export Plug-In . SVG Version: 6.00 Build 0)  -->
<!DOCTYPE svg PUBLIC "-//W3C//DTD SVG 1.1//EN" "http://www.w3.org/Graphics/SVG/1.1/DTD/svg11.dtd">
<svg version="1.1" id="Layer_1" xmlns="http://www.w3.org/2000/svg" xmlns:xlink="http://www.w3.org/1999/xlink" x="0px" y="0px"
	 width="288px" height="288px" viewBox="0 0 288 288" enable-background="new 0 0 288 288" xml:space="preserve">
<g>
	<g>
		<path fill="#1D1D1B" d="M170.377,287.055h-4.077h-45.284h-4.077l-0.798-3.999c-6.956-34.822-10.944-84.215-10.944-135.511
			c0-101.529,33.274-141.369,34.69-143.015l3.77-4.382l3.77,4.382c1.416,1.645,34.692,41.485,34.692,143.015
			c0,51.296-3.988,100.688-10.943,135.511L170.377,287.055L170.377,287.055z"/>
		<path fill="#FFFFFF" d="M177.147,147.545c0-100.851-33.488-139.773-33.488-139.773S110.17,46.694,110.17,147.545
			c0,53.243,4.18,101.158,10.847,134.536H166.3C172.967,248.703,177.147,200.788,177.147,147.545z"/>
	</g>
	<g>
		<path fill="#1D1D1B" d="M143.659,26.619c3.531,6.887,7.934,17.017,11.972,30.705c2.069,0.867,4.109,1.96,6.115,3.271
			c-6.192-22.762-13.673-37.019-18.087-44.116c-4.414,7.098-11.895,21.353-18.087,44.114c2.007-1.312,4.046-2.402,6.116-3.271
			C135.725,43.635,140.128,33.506,143.659,26.619z"/>
	</g>
	<path fill="#1D1D1B" d="M143.658,82.657c-10.746,0-20.303,9.229-26.424,23.566c-0.929,8.788-1.589,18.253-1.896,28.42
		c5.921-9.599,16.38-15.989,28.319-15.989c11.939,0,22.4,6.392,28.321,15.99c-0.306-10.166-0.966-19.629-1.896-28.417
		C163.962,91.89,154.404,82.657,143.658,82.657z"/>
	<g>
		<path fill="#FFFFFF" d="M120.114,147.545c0-3.751,0.053-7.568,0.154-11.372c5.341-7.88,13.991-12.546,23.39-12.546
			c9.399,0,18.05,4.667,23.39,12.546c0.1,3.771,0.152,7.59,0.152,11.372c0,3.836-0.025,7.662-0.07,11.476
			c1.711,0.227,3.368,0.477,4.964,0.749c0.05-4.059,0.078-8.134,0.078-12.225c0-4.422-0.069-8.719-0.195-12.9
			c-5.92-9.599-16.381-15.99-28.321-15.99c-11.939,0-22.398,6.391-28.319,15.989c-0.126,4.183-0.195,8.479-0.195,12.901
			c0,4.091,0.028,8.166,0.078,12.225c1.596-0.273,3.252-0.523,4.963-0.749C120.139,155.207,120.114,151.381,120.114,147.545z"/>
		<g>
			<path fill="#1D1D1B" d="M167.131,159.02c-0.051,4.252-0.129,8.485-0.234,12.693c-0.098,3.905-0.219,7.786-0.363,11.64
				c-6.904,0.884-14.666,1.383-22.874,1.383c-8.21,0-15.972-0.499-22.877-1.384c-0.144-3.852-0.265-7.733-0.363-11.639
				c-0.105-4.208-0.184-8.441-0.234-12.693c-1.711,0.227-3.367,0.477-4.963,0.749c0.053,4.252,0.134,8.482,0.241,12.685
				c0.087,3.408,0.191,6.797,0.313,10.163c0.156,4.313,0.341,8.588,0.554,12.817c1.618,0.261,3.292,0.501,5.021,0.716
				c6.762,0.84,14.323,1.311,22.308,1.311c7.984,0,15.545-0.471,22.307-1.311c1.729-0.215,3.404-0.454,5.022-0.716
				c0.213-4.229,0.398-8.504,0.554-12.817c0.122-3.366,0.226-6.755,0.313-10.163c0.107-4.202,0.188-8.433,0.241-12.685
				C170.499,159.497,168.842,159.247,167.131,159.02z"/>
		</g>
	</g>
	<g>
		<path fill="#1D1D1B" d="M158.046,272.138h-28.775c-2.949-16.819-5.253-36.674-6.813-58.166c-1.701,0.691-3.312,1.465-4.823,2.31
			c1.701,22.672,4.233,43.45,7.485,60.828h37.08c3.251-17.375,5.783-38.154,7.484-60.829c-1.511-0.844-3.123-1.617-4.824-2.309
			C163.298,235.467,160.996,255.322,158.046,272.138z"/>
		<path fill="#1D1D1B" d="M122.457,213.972c1.561,21.492,3.864,41.347,6.813,58.166h28.775c2.949-16.815,5.252-36.671,6.812-58.166
			c-6.128-2.494-13.397-3.944-21.2-3.944C135.855,210.027,128.586,211.479,122.457,213.972z"/>
		<path fill="#FFFFFF" d="M153.847,267.167H133.47c-2.409-14.646-4.348-31.363-5.771-49.802c4.927-1.554,10.374-2.367,15.96-2.367
			c5.585,0,11.033,0.813,15.959,2.367C158.195,235.806,156.256,252.521,153.847,267.167L153.847,267.167z"/>
		<path fill="#1D1D1B" d="M149.604,262.195h-11.89c-1.909-12.371-3.495-26.154-4.728-41.093c3.407-0.744,7.034-1.132,10.674-1.132
			c3.64,0,7.267,0.388,10.672,1.132C153.099,236.038,151.513,249.824,149.604,262.195L149.604,262.195z"/>
		<g>
			<path fill="#FFFFFF" d="M165.965,196.15c-6.761,0.84-14.322,1.311-22.307,1.311c-7.985,0-15.546-0.471-22.308-1.311
				c-1.729-0.215-3.403-0.455-5.021-0.716c0.357,7.096,0.795,14.053,1.305,20.847c1.511-0.845,3.122-1.618,4.823-2.31
				c6.129-2.493,13.398-3.944,21.201-3.944c7.803,0,15.072,1.45,21.2,3.944c1.701,0.691,3.313,1.465,4.824,2.309
				c0.51-6.793,0.948-13.75,1.305-20.846C169.37,195.696,167.695,195.936,165.965,196.15z"/>
		</g>
	</g>
</g>
</svg>
