<?xml version="1.0" encoding="utf-8"?>
<!-- Generator: Adobe Illustrator 17.0.0, SVG Export Plug-In . SVG Version: 6.00 Build 0)  -->
<!DOCTYPE svg PUBLIC "-//W3C//DTD SVG 1.1//EN" "http://www.w3.org/Graphics/SVG/1.1/DTD/svg11.dtd">
<svg version="1.1" id="Layer_1" xmlns="http://www.w3.org/2000/svg" xmlns:xlink="http://www.w3.org/1999/xlink" x="0px" y="0px"
	 width="288px" height="288px" viewBox="0 0 288 288" enable-background="new 0 0 288 288" xml:space="preserve">
<g>
	<path fill="#1D1D1B" d="M177.67,196.109V74.657c0-53.696-32.758-74.292-32.758-74.292s-34.22,20.596-34.22,74.292v121.452
		c0,0,0,51.689,11.578,91.162h45.282C177.67,247.799,177.67,196.109,177.67,196.109z"/>
	<path fill="#FFFFFF" d="M163.656,282.297h-37.621c-10.236-37.826-10.368-85.694-10.368-86.188V74.657
		c0-41.959,21.494-62.26,29.179-68.174c7.401,5.981,27.852,26.295,27.852,68.174v121.452
		C172.697,196.604,172.582,244.419,163.656,282.297L163.656,282.297z"/>
	<path fill="#1D1D1B" d="M159.68,277.327h-29.799c-9.105-36.507-9.241-80.762-9.243-81.217V74.658
		c0-34.977,15.824-54.029,24.127-61.61c7.942,7.641,22.96,26.712,22.96,61.61v121.452
		C167.723,196.565,167.612,240.711,159.68,277.327L159.68,277.327z"/>
	<polygon fill="#1D1D1B" points="185.328,114.371 103.035,114.371 103.035,90.186 185.328,90.186 185.328,114.371 	"/>
	<path fill="#1D1D1B" d="M177.67,173.016h-66.977V93.813l1.653-1.481c6.887-6.172,24.556-6.839,31.835-6.839
		c7.278,0,24.947,0.667,31.835,6.839l1.653,1.481V173.016z"/>
	<path fill="#FFFFFF" d="M115.665,96.034v69.379h57.034v-69.38C164.413,88.607,123.949,88.608,115.665,96.034z"/>
	<rect x="108.007" y="96.034" fill="#FFFFFF" width="72.351" height="13.365"/>
	<path fill="#1D1D1B" d="M147.288,101.402c0,1.716-1.391,3.107-3.107,3.107l0,0c-1.716,0-3.107-1.391-3.107-3.107l0,0
		c0-1.716,1.391-3.108,3.107-3.108l0,0C145.897,98.294,147.288,99.686,147.288,101.402L147.288,101.402z"/>
	<rect x="120.638" y="128.659" fill="#1D1D1B" width="18.333" height="36.754"/>
	<polygon fill="#FFFFFF" points="133.997,213.94 126.487,213.94 126.487,143.779 133.997,143.779 133.997,213.94 	"/>
	<rect x="149.3" y="128.659" fill="#1D1D1B" width="18.425" height="36.754"/>
	<polygon fill="#FFFFFF" points="161.875,213.94 155.149,213.94 155.149,143.78 161.875,143.78 161.875,213.94 	"/>
	<path fill="#FFFFFF" d="M158.474,258.49c0,4.119-3.34,7.458-7.459,7.458h-12.044c-4.119,0-7.459-3.339-7.459-7.458v-26.911
		c0-4.119,3.34-7.458,7.459-7.458h12.044c4.119,0,7.459,3.339,7.459,7.458V258.49z"/>
</g>
</svg>
