<?xml version="1.0" encoding="utf-8"?>
<!-- Generator: Adobe Illustrator 17.0.0, SVG Export Plug-In . SVG Version: 6.00 Build 0)  -->
<!DOCTYPE svg PUBLIC "-//W3C//DTD SVG 1.1//EN" "http://www.w3.org/Graphics/SVG/1.1/DTD/svg11.dtd">
<svg version="1.1" id="Layer_1" xmlns="http://www.w3.org/2000/svg" xmlns:xlink="http://www.w3.org/1999/xlink" x="0px" y="0px"
	 width="288px" height="288px" viewBox="0 0 288 288" enable-background="new 0 0 288 288" xml:space="preserve">
<g>
	<polygon fill="#1D1D1B" points="184.806,117.002 102.513,117.002 102.513,91.063 184.806,91.063 184.806,117.002 	"/>
	<path fill="#1D1D1B" d="M177.148,196.109V74.657c0-53.696-32.758-74.292-32.758-74.292S110.17,20.961,110.17,74.657v121.452
		c0,0,0,51.689,11.578,91.162h45.282C177.148,247.799,177.148,196.109,177.148,196.109z"/>
	<g>
		<path fill="#FFFFFF" d="M120.786,260.533c1.269,7.355,2.822,14.733,4.726,21.767h37.62c1.681-7.131,3.05-14.614,4.164-22.067
			c-7.463,3.042-15.401,4.683-23.635,4.683C135.705,264.917,128.026,263.38,120.786,260.533z"/>
		<path fill="#FFFFFF" d="M120.786,260.533c1.269,7.355,2.822,14.733,4.726,21.767h37.62c1.681-7.131,3.05-14.614,4.164-22.067
			c-7.463,3.042-15.401,4.683-23.635,4.683C135.705,264.917,128.026,263.38,120.786,260.533z"/>
		<path fill="#FFFFFF" d="M120.786,260.533c1.269,7.355,2.822,14.733,4.726,21.767h37.62c1.681-7.131,3.05-14.614,4.164-22.067
			c-7.463,3.042-15.401,4.683-23.635,4.683C135.705,264.917,128.026,263.38,120.786,260.533z"/>
	</g>
	<g>
		<path fill="#FFFFFF" d="M171.878,66.211c-2.503-36.188-20.669-54.165-27.556-59.729c-7.148,5.501-26.24,23.465-28.869,59.722
			c8.76-4.36,18.267-6.755,28.206-6.755C153.604,59.449,163.115,61.847,171.878,66.211z"/>
		<path fill="#FFFFFF" d="M171.878,66.211c-2.503-36.188-20.669-54.165-27.556-59.729c-7.148,5.501-26.24,23.465-28.869,59.722
			c8.76-4.36,18.267-6.755,28.206-6.755C153.604,59.449,163.115,61.847,171.878,66.211z"/>
		<path fill="#FFFFFF" d="M171.878,66.211c-2.503-36.188-20.669-54.165-27.556-59.729c-7.148,5.501-26.24,23.465-28.869,59.722
			c8.76-4.36,18.267-6.755,28.206-6.755C153.604,59.449,163.115,61.847,171.878,66.211z"/>
	</g>
	<path fill="#1D1D1B" d="M143.659,259.945c-8.329,0-16.339-1.829-23.816-5.196c0.295,1.922,0.61,3.853,0.943,5.784
		c7.241,2.847,14.919,4.384,22.875,4.384c8.234,0,16.172-1.642,23.635-4.683c0.289-1.931,0.56-3.86,0.815-5.78
		C160.452,258.005,152.225,259.945,143.659,259.945z"/>
	<path fill="#1D1D1B" d="M143.659,64.421c10.086,0,19.706,2.684,28.476,7.533c-0.042-1.963-0.127-3.878-0.256-5.743
		c-8.763-4.364-18.275-6.762-28.218-6.762c-9.939,0-19.446,2.396-28.206,6.755c-0.135,1.867-0.225,3.784-0.269,5.749
		C123.955,67.104,133.574,64.421,143.659,64.421z"/>
	<path fill="#FFFFFF" d="M143.659,254.973c-8.688,0-17.005-2.176-24.67-6.132c0.267,1.956,0.55,3.928,0.854,5.908
		c7.477,3.367,15.488,5.196,23.816,5.196c8.565,0,16.793-1.939,24.452-5.492c0.262-1.971,0.507-3.932,0.737-5.878
		C161.04,252.703,152.544,254.973,143.659,254.973z"/>
	<path fill="#1D1D1B" d="M115.185,71.953c-0.02,0.895-0.043,1.788-0.043,2.704v3.033c8.697-5.326,18.354-8.296,28.517-8.296
		s19.82,2.97,28.517,8.295v-3.032c0-0.916-0.022-1.808-0.041-2.704c-8.77-4.849-18.39-7.533-28.476-7.533
		C133.574,64.421,123.955,67.104,115.185,71.953z"/>
	<path fill="#1D1D1B" d="M143.659,74.365c10.24,0,19.923,3.317,28.517,9.199v-5.876c-8.697-5.325-18.354-8.295-28.517-8.295
		s-19.82,2.97-28.517,8.296v5.876C123.735,77.683,133.419,74.365,143.659,74.365z"/>
	<path fill="#1D1D1B" d="M143.659,250c-9.038,0-17.641-2.585-25.445-7.235c0.239,2.002,0.498,4.03,0.775,6.076
		c7.665,3.956,15.982,6.132,24.67,6.132c8.884,0,17.381-2.27,25.189-6.397c0.241-2.04,0.464-4.063,0.671-6.059
		C161.606,247.323,152.857,250,143.659,250z"/>
	<path fill="#FFFFFF" d="M169.519,242.517c0.221-2.128,0.423-4.225,0.609-6.283c-7.967,5.623-16.958,8.794-26.469,8.794
		c-9.385,0-18.263-3.089-26.15-8.573c0.215,2.067,0.45,4.174,0.705,6.31c7.804,4.65,16.408,7.235,25.445,7.235
		C152.857,250,161.606,247.323,169.519,242.517z"/>
	<path fill="#FFFFFF" d="M143.659,79.337c10.335,0,20.056,3.745,28.517,10.31v-6.083c-8.593-5.882-18.276-9.199-28.517-9.199
		c-10.24,0-19.924,3.317-28.517,9.2v6.083C123.602,83.082,133.324,79.337,143.659,79.337z"/>
	<path fill="#1D1D1B" d="M143.658,86.941c10.458,0,20.232,4.297,28.518,11.723v-9.017c-8.46-6.565-18.182-10.31-28.517-10.31
		c-10.335,0-20.057,3.745-28.517,10.311v9.016C123.427,91.239,133.2,86.941,143.658,86.941z"/>
	<path fill="#1D1D1B" d="M143.658,240.056c-9.739,0-18.885-3.726-26.788-10.235c0.191,2.155,0.403,4.371,0.638,6.634
		c7.887,5.484,16.766,8.573,26.15,8.573c9.51,0,18.502-3.172,26.469-8.794c0.203-2.253,0.386-4.459,0.552-6.604
		C162.724,236.257,153.493,240.056,143.658,240.056z"/>
	<path fill="#FFFFFF" d="M115.142,98.665v97.444c0,0.27,0.037,14.6,1.729,33.712c7.903,6.509,17.048,10.235,26.788,10.235
		c9.835,0,19.065-3.798,27.021-10.426c1.462-19.018,1.496-33.252,1.496-33.521V98.664c-8.286-7.425-18.059-11.723-28.518-11.723
		S123.427,91.239,115.142,98.665z"/>
	<rect x="107.483" y="98.665" fill="#FFFFFF" width="72.351" height="13.366"/>
	<path fill="#1D1D1B" d="M146.766,104.033c0,1.716-1.391,3.107-3.107,3.107l0,0c-1.716,0-3.107-1.391-3.107-3.107l0,0
		c0-1.716,1.391-3.107,3.107-3.107l0,0C145.374,100.925,146.766,102.317,146.766,104.033L146.766,104.033z"/>
	<rect x="136.638" y="205.918" fill="#1D1D1B" width="14.039" height="27.334"/>
	<path fill="#1D1D1B" d="M166.326,192.329c0,4.119-3.339,7.458-7.459,7.458h-30.419c-4.119,0-7.459-3.339-7.459-7.458v-62.87
		c0-4.119,3.34-7.458,7.459-7.458h30.419c4.119,0,7.459,3.339,7.459,7.458V192.329z"/>
	<path fill="#FFFFFF" d="M158.869,194.817h-30.421c-1.371,0-2.486-1.115-2.486-2.487v-62.87c0-1.372,1.115-2.487,2.486-2.487h30.421
		c1.371,0,2.486,1.115,2.486,2.487v62.87C161.355,193.702,160.24,194.817,158.869,194.817L158.869,194.817z"/>
	<ellipse fill="#1D1D1B" cx="143.658" cy="165.13" rx="14.992" ry="27.211"/>
</g>
</svg>
